name ./resultDataOpenSim/trcMotMarkerGrf/sub06/grf-03-08.mot
datacolumns 19
datarows 17
range 1.02400000 1.08800000
endheader

                time	     ground_force_vx	     ground_force_vy	     ground_force_vz	     ground_force_px	     ground_force_py	     ground_force_pz	   l_ground_force_vx	   l_ground_force_vy	   l_ground_force_vz	   l_ground_force_px	   l_ground_force_py	   l_ground_force_pz	     ground_torque_x	     ground_torque_y	     ground_torque_z	   l_ground_torque_x	   l_ground_torque_y	   l_ground_torque_z	
          1.02400000	          0.00000000	          0.00000000	          0.00000000	          0.00000000	          0.00000000	          0.00000000	         62.76432498	        530.54132196	         23.95841888	          0.05875938	         -0.05000000	         -0.02535892	          0.00000000	          0.00000000	          0.00000000	          0.00000000	         -2.72001471	          0.00000000	
          1.02800000	          0.00000000	          0.00000000	          0.00000000	          0.00000000	          0.00000000	          0.00000000	         67.02671127	        554.12263611	         27.24477502	          0.05874951	         -0.05000000	         -0.02560410	          0.00000000	          0.00000000	          0.00000000	          0.00000000	         -2.69430036	          0.00000000	
          1.03200000	          0.00000000	          0.00000000	          0.00000000	          0.00000000	          0.00000000	          0.00000000	         71.63420142	        578.50455333	         30.67081523	          0.05878371	         -0.05000000	         -0.02585161	          0.00000000	          0.00000000	          0.00000000	          0.00000000	         -2.66387432	          0.00000000	
          1.03600000	          0.00000000	          0.00000000	          0.00000000	          0.00000000	          0.00000000	          0.00000000	         76.67055645	        603.33594076	         34.10420056	          0.05888907	         -0.05000000	         -0.02607021	          0.00000000	          0.00000000	          0.00000000	          0.00000000	         -2.63559768	          0.00000000	
          1.04000000	          0.00000000	          0.00000000	          0.00000000	          0.00000000	          0.00000000	          0.00000000	         82.15613694	        628.20930923	         37.42727975	          0.05906796	         -0.05000000	         -0.02624555	          0.00000000	          0.00000000	          0.00000000	          0.00000000	         -2.61642340	          0.00000000	
          1.04400000	          0.00000000	          0.00000000	          0.00000000	          0.00000000	          0.00000000	          0.00000000	         88.07439425	        652.73685725	         40.52998851	          0.05930574	         -0.05000000	         -0.02637685	          0.00000000	          0.00000000	          0.00000000	          0.00000000	         -2.61254724	          0.00000000	
          1.04800000	          0.00000000	          0.00000000	          0.00000000	          0.00000000	          0.00000000	          0.00000000	         94.40991956	        676.61147448	         43.30874149	          0.05958706	         -0.05000000	         -0.02646174	          0.00000000	          0.00000000	          0.00000000	          0.00000000	         -2.62858454	          0.00000000	
          1.05200000	          0.00000000	          0.00000000	          0.00000000	          0.00000000	          0.00000000	          0.00000000	        101.16774500	        699.59873413	         45.67866943	          0.05989580	         -0.05000000	         -0.02649987	          0.00000000	          0.00000000	          0.00000000	          0.00000000	         -2.66701105	          0.00000000	
          1.05600000	          0.00000000	          0.00000000	          0.00000000	          0.00000000	          0.00000000	          0.00000000	        108.36798387	        721.46836338	         47.58227450	          0.06021403	         -0.05000000	         -0.02649685	          0.00000000	          0.00000000	          0.00000000	          0.00000000	         -2.72804175	          0.00000000	
          1.06000000	          0.00000000	          0.00000000	          0.00000000	          0.00000000	          0.00000000	          0.00000000	        116.02483762	        741.94057824	         48.98631392	          0.06054074	         -0.05000000	         -0.02644866	          0.00000000	          0.00000000	          0.00000000	          0.00000000	         -2.80994575	          0.00000000	
          1.06400000	          0.00000000	          0.00000000	          0.00000000	          0.00000000	          0.00000000	          0.00000000	        124.12049991	        760.69915532	         49.88116640	          0.06089870	         -0.05000000	         -0.02634477	          0.00000000	          0.00000000	          0.00000000	          0.00000000	         -2.90961092	          0.00000000	
          1.06800000	          0.00000000	          0.00000000	          0.00000000	          0.00000000	          0.00000000	          0.00000000	        132.59467102	        777.43544617	         50.28517811	          0.06132270	         -0.05000000	         -0.02618440	          0.00000000	          0.00000000	          0.00000000	          0.00000000	         -3.02309484	          0.00000000	
          1.07200000	          0.00000000	          0.00000000	          0.00000000	          0.00000000	          0.00000000	          0.00000000	        141.35707975	        791.88271151	         50.24048953	          0.06185350	         -0.05000000	         -0.02596627	          0.00000000	          0.00000000	          0.00000000	          0.00000000	         -3.14595113	          0.00000000	
          1.07600000	          0.00000000	          0.00000000	          0.00000000	          0.00000000	          0.00000000	          0.00000000	        150.30108547	        803.85080162	         49.80205609	          0.06251858	         -0.05000000	         -0.02568634	          0.00000000	          0.00000000	          0.00000000	          0.00000000	         -3.27325390	          0.00000000	
          1.08000000	          0.00000000	          0.00000000	          0.00000000	          0.00000000	          0.00000000	          0.00000000	        159.30287874	        813.24662489	         49.03404534	          0.06330285	         -0.05000000	         -0.02534711	          0.00000000	          0.00000000	          0.00000000	          0.00000000	         -3.39940924	          0.00000000	
          1.08400000	          0.00000000	          0.00000000	          0.00000000	          0.00000000	          0.00000000	          0.00000000	        168.21820873	        820.04571258	         48.01263050	          0.06415970	         -0.05000000	         -0.02496781	          0.00000000	          0.00000000	          0.00000000	          0.00000000	         -3.51800932	          0.00000000	
          1.08800000	          0.00000000	          0.00000000	          0.00000000	          0.00000000	          0.00000000	          0.00000000	        176.89338278	        824.23841757	         46.81885407	          0.06503670	         -0.05000000	         -0.02458690	          0.00000000	          0.00000000	          0.00000000	          0.00000000	         -3.62203132	          0.00000000	
